<?xml version="1.0" encoding="UTF-8"?>
<svg width="24px" height="24px" viewBox="0 0 24 24" version="1.1" xmlns="http://www.w3.org/2000/svg" xmlns:xlink="http://www.w3.org/1999/xlink">
    <g stroke="none" stroke-width="1" fill="none" fill-rule="evenodd">
        <path d="M20,15.31 L20,20 L4,20 L4,4 L8.69,4 L10.19,5.5 L10.69,5.05 L9.45,3.82 L8.69,3 L3,3 L3,21 L21,21 L21,15.31 L20.3,14.55 L20,14.83 L20,15.31 Z" fill="#000000"></path>
        <path d="M18,2 L14.76,2 L13.76,3 L14.26,3.45 L15.45,4.64 L16.97,6.17 L18.58,7.77 L20.9,10.13 L21.72,11 L21.72,7.29 L20.72,6.29 L18,3.58 L18,2 Z M19.32,6.29 L17.03,4 L17.03,6.29 L19.32,6.29 Z" fill="#000000"></path>
        <path d="M10.69,5.05 L10.19,5.5 L18.17,13.47 L14.76,16.88 L6.29,8.4 L9.7,4.99 L10.69,5.05 Z M13.26,9.5 L14.68,10.91 L13.26,12.33 L11.85,10.91 L13.26,9.5 Z" fill="#000000"></path>
        <path d="M20,14.83 L14.73,20 L13.33,20 L18.62,14.8 L20,14.83 Z" fill="#000000"></path>
    </g>
</svg>
